<svg width="126" height="100" viewBox="0 0 126 100" fill="none" xmlns="http://www.w3.org/2000/svg">
<g clip-path="url(#clip0_161_18)">
<rect width="126" height="100" fill="white"/>
<path d="M50.4 43.75C50.4 47.2018 47.5794 50 44.1 50C40.6206 50 37.8 47.2018 37.8 43.75C37.8 40.2982 40.6206 37.5 44.1 37.5C47.5794 37.5 50.4 40.2982 50.4 43.75Z" fill="black"/>
<path d="M81.9 50C85.3794 50 88.2 47.2018 88.2 43.75C88.2 40.2982 85.3794 37.5 81.9 37.5C78.4206 37.5 75.6 40.2982 75.6 43.75C75.6 47.2018 78.4206 50 81.9 50Z" fill="black"/>
<path d="M63 68.75C66.4794 68.75 69.3 65.9518 69.3 62.5H56.7C56.7 65.9518 59.5206 68.75 63 68.75Z" fill="black"/>
<path fill-rule="evenodd" clip-rule="evenodd" d="M63 0C84.2253 0 102.386 13.0164 109.814 31.4419C118.967 32.7477 126 40.559 126 50C126 58.767 119.935 66.1286 111.74 68.1807C106.505 86.5444 89.4866 100 69.3 100H56.7C36.5134 100 19.4946 86.5444 14.2597 68.1807C6.06505 66.1286 0 58.767 0 50C0 40.559 7.03349 32.7477 16.1857 31.4419C23.614 13.0164 41.7748 0 63 0ZM36.8252 61.0607C29.9981 58.2337 25.2 51.5477 25.2 43.75C25.2 33.3947 33.6618 25 44.1 25C51.9601 25 58.6996 29.7601 61.5492 36.5329C61.7936 37.1139 62.3655 37.5 63 37.5C63.6346 37.5 64.2064 37.1138 64.4508 36.5329C67.3004 29.76 74.0399 25 81.9 25C92.3382 25 100.8 33.3947 100.8 43.75C100.8 51.5477 96.0019 58.2337 89.1748 61.0607C88.5892 61.3032 88.2 61.8705 88.2 62.5C88.2 76.3071 76.9176 87.5 63 87.5C49.0824 87.5 37.8 76.3071 37.8 62.5C37.8 61.8705 37.4108 61.3032 36.8252 61.0607Z" fill="black"/>
</g>
<defs>
<clipPath id="clip0_161_18">
<rect width="126" height="100" fill="white"/>
</clipPath>
</defs>
</svg>
