<svg width="50" height="50" viewBox="0 0 50 50" fill="none" xmlns="http://www.w3.org/2000/svg">
<path fill-rule="evenodd" clip-rule="evenodd" d="M5.25357 36.8499C6.64541 36.8461 7.97912 36.2913 8.96297 35.3068C9.94682 34.3223 10.5007 32.9882 10.5036 31.5963V26.3463H5.25357C3.86234 26.3492 2.52879 26.9026 1.54438 27.8857C0.559957 28.8688 0.00471637 30.2015 0 31.5928C0.00357143 34.4892 2.35357 36.8392 5.25 36.8428L5.25357 36.8499ZM18.4036 26.3428C17.0117 26.3465 15.678 26.9014 14.6942 27.8859C13.7103 28.8704 13.1564 30.2045 13.1536 31.5963V44.7499C13.1607 47.6463 15.5107 49.9928 18.4036 49.9999C19.7948 49.9961 21.128 49.4418 22.1117 48.4581C23.0954 47.4743 23.6498 46.1411 23.6536 44.7499V31.5928C23.6498 30.2015 23.0954 28.8684 22.1117 27.8846C21.128 26.9009 19.7948 26.3465 18.4036 26.3428Z" fill="#E01E5A"/>
<path fill-rule="evenodd" clip-rule="evenodd" d="M13.1536 5.25357C13.1571 8.15 15.5071 10.5 18.4036 10.5036H23.6536V5.25357C23.6507 3.86234 23.0973 2.5288 22.1142 1.54438C21.1311 0.559957 19.7984 0.00471638 18.4071 0C17.0159 0.00377028 15.6827 0.558104 14.699 1.54185C13.7152 2.5256 13.1609 3.85877 13.1571 5.25L13.1536 5.25357ZM23.6536 18.4036C23.6498 17.0123 23.0955 15.6792 22.1117 14.6954C21.128 13.7117 19.7948 13.1573 18.4036 13.1536H5.25C3.85877 13.1573 2.5256 13.7117 1.54185 14.6954C0.558104 15.6792 0.00377028 17.0123 0 18.4036C0.00714285 21.3036 2.35714 23.65 5.25 23.6536H18.4071C19.7984 23.6498 21.1315 23.0955 22.1153 22.1117C23.099 21.128 23.6498 19.7948 23.6536 18.4036Z" fill="#36C5F0"/>
<path fill-rule="evenodd" clip-rule="evenodd" d="M31.5964 23.6571C32.9877 23.6534 34.3208 23.099 35.3046 22.1153C36.2883 21.1315 36.8427 19.7984 36.8464 18.4071V5.25C36.8427 3.85939 36.2888 2.52676 35.3059 1.54311C34.3229 0.559462 32.9906 0.00471205 31.6 0C30.2088 0.00377028 28.8756 0.558104 27.8919 1.54185C26.9081 2.5256 26.3538 3.85877 26.35 5.25V18.4071C26.3572 21.3 28.7 23.65 31.5964 23.6571ZM44.7464 13.1536C43.3552 13.1573 42.022 13.7117 41.0383 14.6954C40.0545 15.6792 39.5002 17.0123 39.4964 18.4036V23.6536H44.7464C46.1377 23.6507 47.4712 23.0973 48.4556 22.1142C49.44 21.1312 49.9953 19.7984 50 18.4071C49.9962 17.0159 49.4419 15.6827 48.4582 14.699C47.4744 13.7152 46.1412 13.1609 44.75 13.1571L44.7464 13.1536Z" fill="#2EB67D"/>
<path fill-rule="evenodd" clip-rule="evenodd" d="M26.3463 31.5965C26.3535 34.493 28.6999 36.843 31.5963 36.8465H44.7499C46.1405 36.8428 47.4731 36.2889 48.4568 35.3059C49.4404 34.323 49.9952 32.9907 49.9999 31.6001C49.9961 30.2089 49.4418 28.8757 48.458 27.892C47.4743 26.9082 46.1411 26.3539 44.7499 26.3501H31.5963C30.2051 26.3539 28.8719 26.9082 27.8882 27.892C26.9045 28.8757 26.3501 30.2053 26.3463 31.5965ZM36.8463 44.7465C36.8426 43.3553 36.2882 42.0221 35.3045 41.0384C34.3207 40.0546 32.9876 39.5003 31.5963 39.4965H26.3463V44.7465C26.3535 47.6465 28.6999 49.993 31.5963 49.9965C32.9876 49.9928 34.3207 49.4384 35.3045 48.4547C36.2882 47.4709 36.8426 46.1378 36.8463 44.7465Z" fill="#ECB22E"/>
</svg>
